<svg width="124" height="166" viewBox="0 0 124 166" fill="none" xmlns="http://www.w3.org/2000/svg">
<path d="M49.96 97.6763L66.4448 107.194L32.9694 165.175L23.3613 143.747L49.96 97.6763Z" fill="#418ED6"/>
<path d="M49.96 97.6763L33.4752 88.1588L-0.000176155 146.14L23.3613 143.747L49.96 97.6763Z" fill="#2B63A6"/>
<path d="M73.4785 97.6763L56.9937 107.194L90.4691 165.175L100.077 143.747L73.4785 97.6763Z" fill="#2B63A6"/>
<path d="M73.4785 97.6763L89.9633 88.1588L123.439 146.14L100.077 143.747L73.4785 97.6763Z" fill="#418ED6"/>
<circle cx="61.6924" cy="57.7539" r="57.2539" fill="#E3E3E3" stroke="#404040"/>
<circle cx="61.6922" cy="57.754" r="44.3016" fill="#595959"/>
<mask id="mask0_86_272" style="mask-type:alpha" maskUnits="userSpaceOnUse" x="19" y="18" width="90" height="89">
<circle cx="64.057" cy="62.4833" r="44.4047" fill="#C28B37"/>
</mask>
<g mask="url(#mask0_86_272)">
<circle cx="61.6918" cy="57.7538" r="44.4047" fill="url(#paint0_linear_86_272)"/>
</g>
<path d="M61.9324 26.8625L71.5112 46.02L90.6686 48.4147L77.5138 63.1659L81.0899 84.3349L61.9324 74.7561L42.775 84.3349L46.383 63.1659L33.1963 48.4147L52.3537 46.02L61.9324 26.8625Z" fill="url(#paint1_linear_86_272)"/>
<defs>
<linearGradient id="paint0_linear_86_272" x1="61.6918" y1="13.3491" x2="61.6918" y2="102.158" gradientUnits="userSpaceOnUse">
<stop stop-color="#9CA1A3"/>
<stop offset="1" stop-color="#9CA1A3" stop-opacity="0"/>
</linearGradient>
<linearGradient id="paint1_linear_86_272" x1="61.9324" y1="26.8625" x2="61.9324" y2="84.3349" gradientUnits="userSpaceOnUse">
<stop stop-color="#F1F5F5"/>
<stop offset="0.0001" stop-color="white"/>
<stop offset="1" stop-color="#F1F5F5"/>
</linearGradient>
</defs>
</svg>
