<svg width="301" height="82" viewBox="0 0 301 82" fill="none" xmlns="http://www.w3.org/2000/svg">
<path fill-rule="evenodd" clip-rule="evenodd" d="M74.4473 16.5173C85.2473 14.9173 81.7806 4.85064 78.9473 0.0173051C77.6567 4.85674 71.9424 6.11811 67.6812 6.16266C65.8673 6.18162 64.1298 5.57735 62.4548 4.8812C52.3319 0.674051 39.4814 -0.136421 33.9473 0.0173051C17.5473 0.0173051 10.4473 16.5173 10.9473 23.5173H8.44727C6.23813 23.5173 4.44727 25.3082 4.44727 27.5173V30.0173H2.44727C1.3427 30.0173 0.447266 30.9127 0.447266 32.0173V33.0173C0.447266 34.1219 1.3427 35.0173 2.44727 35.0173H4.44727V52.5173C4.44727 54.7264 6.23813 56.5173 8.44727 56.5173H12.4473V59.5173C12.4473 68.3539 19.6107 75.5173 28.4473 75.5173H62.9473C71.7838 75.5173 78.9473 68.3539 78.9473 59.5173V56.5173H83.9473C86.1564 56.5173 87.9473 54.7264 87.9473 52.5173V35.0173H89.9473C91.0518 35.0173 91.9473 34.1219 91.9473 33.0173V32.0173C91.9473 30.9127 91.0518 30.0173 89.9473 30.0173H87.9473V27.0173C87.9473 24.8082 86.1564 23.0173 83.9473 23.0173H78.9473C78.9473 21.0173 76.1139 18.0173 74.4473 16.5173ZM10.4473 49.0173C10.4473 50.1219 11.3427 51.0173 12.4473 51.0173H33.4473C34.5518 51.0173 35.4473 50.1219 35.4473 49.0173V31.0173C35.4473 29.9128 34.5518 29.0173 33.4473 29.0173H12.4473C11.3427 29.0173 10.4473 29.9128 10.4473 31.0173V49.0173ZM57.4473 49.0173C57.4473 50.1219 58.3427 51.0173 59.4473 51.0173H80.4473C81.5518 51.0173 82.4473 50.1219 82.4473 49.0173V31.0173C82.4473 29.9128 81.5518 29.0173 80.4473 29.0173H59.4473C58.3427 29.0173 57.4473 29.9128 57.4473 31.0173V49.0173Z" fill="white"/>
<path fill-rule="evenodd" clip-rule="evenodd" d="M124.447 2.01733H130.447V30.0173H136.947V35.0173H130.447V47.0173H124.447V35.0173H103.447V30.0173L124.447 2.01733ZM124.447 10.5173V30.0173H110.947L124.447 10.5173Z" fill="white"/>
<path d="M164.444 30.0173V25.0173H178.445V42.5173C151.447 55.0173 139.947 38.0173 139.947 25.0173C139.947 -5.78268 173.447 0.517351 178.444 8.0173L174.444 12.0173C157.944 1.01733 146.947 13.0173 146.947 25.0173C146.947 42.5173 164.447 42.3506 172.447 39.0173V30.0173H164.444Z" fill="white"/>
<path fill-rule="evenodd" clip-rule="evenodd" d="M211.447 31.0173H189.447C189.447 43.8173 202.114 41.684 208.447 39.0173L211.447 42.0173C197.947 51.5173 183.447 43.0173 183.447 31.5173C183.447 19.1173 192.947 15.184 197.447 15.0173C211.047 15.0173 212.447 25.684 211.447 31.0173ZM190.447 27.0173H205.947V26.7673C205.947 22.4871 202.477 19.0173 198.197 19.0173C193.917 19.0173 190.447 22.4871 190.447 26.7673V27.0173Z" fill="white"/>
<path fill-rule="evenodd" clip-rule="evenodd" d="M221.447 31.0173H243.447C244.447 25.684 243.047 15.0173 229.447 15.0173C224.947 15.184 215.447 19.1173 215.447 31.5173C215.447 43.0173 229.947 51.5173 243.447 42.0173L240.447 39.0173C234.114 41.684 221.447 43.8173 221.447 31.0173ZM237.947 27.0173H222.447V26.7673C222.447 22.4871 225.917 19.0173 230.197 19.0173C234.477 19.0173 237.947 22.4871 237.947 26.7673V27.0173Z" fill="white"/>
<path fill-rule="evenodd" clip-rule="evenodd" d="M214.34 68.9399H203.192C203.449 74.5751 209.476 74.5 212.476 72.5L214.215 74.2999C208.969 79.6541 199.977 76.5 199.476 69.2193C199.001 62.3072 204.519 60.0931 206.908 60C214.128 60 214.871 65.9599 214.34 68.9399ZM203.192 66.7049H211.421V66.3492C211.421 64.077 209.579 62.235 207.306 62.235C205.034 62.235 203.192 64.077 203.192 66.3492V66.7049Z" fill="white"/>
<path d="M255.447 1.01733H249.447V46.0173H255.447V32.0173H257.447L268.947 46.0173H275.947L262.447 28.5173L275.447 15.5173H268.447L257.447 27.0173H255.447V1.01733Z" fill="white"/>
<path d="M297.447 22.0174L300.447 18.0174C296.225 15.3304 287.877 11.9361 282.416 16.477C278.514 19.7219 277.65 25.0645 280.866 28.991C282.295 30.7367 285.207 31.6589 287.702 32.4491C288.391 32.667 289.047 32.8748 289.632 33.0872C291.618 33.8082 293.408 34.8392 294.138 36.2025C296.305 40.2509 288.828 43.2461 284.58 41.5029C283.361 41.0027 282.245 40.2147 281.447 39.0174L277.447 43.0174C279.288 45.1412 284.496 48.2751 292.152 46.4732C295.089 45.7821 297.912 44.2311 299.382 41.5963C300.524 39.5478 301.133 36.9533 300.154 34.2887C298.8 30.6029 294.607 29.2474 290.846 28.0314L290.541 27.9325C286.656 26.6741 283.463 24.8255 285.447 21.5174C286.947 19.0173 290.648 17.2174 297.447 22.0174Z" fill="white"/>
<path fill-rule="evenodd" clip-rule="evenodd" d="M127.947 77.5L136.447 55H140.947L149.447 77.5H144.947L142.947 71.5H134.447L132.447 77.5H127.947ZM135.447 68.5L138.947 58.5L142.447 68.5H135.447Z" fill="white"/>
<path d="M161.186 60.322C162.863 60.8007 164.351 61.7906 165.447 63.1559L162.82 65.2952C162.163 64.4765 161.271 63.8828 160.265 63.5957C159.259 63.3087 158.19 63.3424 157.204 63.6921C156.219 64.0419 155.364 64.6906 154.759 65.5491C154.154 66.4076 153.828 67.4338 153.825 68.4867C153.822 69.5395 154.143 70.5674 154.744 71.4291C155.345 72.2908 156.195 72.944 157.179 73.2989C158.163 73.6539 159.232 73.6932 160.24 73.4115C161.247 73.1297 162.142 72.5408 162.804 71.7255L165.419 73.8786C164.317 75.2381 162.823 76.2202 161.143 76.69C159.464 77.1598 157.681 77.0943 156.041 76.5024C154.4 75.9105 152.981 74.8212 151.98 73.3844C150.978 71.9475 150.443 70.2334 150.447 68.4778C150.452 66.7221 150.996 65.0109 152.005 63.5793C153.014 62.1477 154.438 61.066 156.082 60.4827C157.726 59.8995 159.509 59.8433 161.186 60.322Z" fill="white"/>
<path fill-rule="evenodd" clip-rule="evenodd" d="M168.075 62.9186L170.55 65.4807C170.816 64.9298 172.034 63.7133 173.949 63.4773C174.936 63.3557 175.975 63.7264 176.414 64.619C176.74 65.2818 176.982 66.2356 176.982 67.5304C173.519 67.018 166.391 68.3503 167.579 73.6795C168.57 76.754 172.53 78.8037 177.477 74.7043V76.754H180.447V66.9929C180.447 64.9917 180.042 62.8927 178.492 61.6275C176.171 59.7333 172.384 58.7554 168.075 62.9186ZM176.969 70.4157C176.986 69.8978 176.549 69.4925 176.035 69.5606C174.366 69.7821 172.069 70.6125 171.288 72.1629C170.848 73.0363 171.555 73.9967 172.519 74.1614C174.455 74.4924 176.857 73.8363 176.969 70.4157Z" fill="white"/>
<path fill-rule="evenodd" clip-rule="evenodd" d="M197.458 53H193.458V61.5C183.957 58 182.291 65.1667 182.458 69C182.458 78.5 190.459 77.5 193.458 74.5V77H197.458V53ZM192.959 66.1711C191.85 63.6364 188.115 63.6557 186.863 66.1233C185.764 68.291 186.359 70.5318 187.517 72.092C188.69 73.6731 191.032 73.3923 192.195 71.803C193.674 69.7807 193.667 67.7869 192.959 66.1711Z" fill="white"/>
<path d="M219.947 60.0585H216.447V76.5585H220.447V65.5585C220.447 64.1778 221.567 63.0585 222.947 63.0585C224.328 63.0585 225.447 64.1778 225.447 65.5585V76.5585H229.947V65.5585C229.947 64.1778 231.067 63.0585 232.447 63.0585C233.828 63.0585 234.947 64.1778 234.947 65.5585V76.5585H238.947V66.8449C238.947 64.1332 237.823 61.2381 235.207 60.5234C232.053 59.6616 229.668 61.2152 228.447 62.5585C225.447 58.0585 220.947 60.5585 219.947 62.0585V60.0585Z" fill="white"/>
<path d="M241.447 61H245.947L249.947 71L253.447 61H258.447L248.447 82H244.447L247.947 75L241.447 61Z" fill="white"/>
</svg>
