<svg width="151" height="150" viewBox="0 0 151 150" fill="none" xmlns="http://www.w3.org/2000/svg">
<path fill-rule="evenodd" clip-rule="evenodd" d="M150.447 75C150.447 116.421 116.868 150 75.4473 150C34.0264 150 0.447266 116.421 0.447266 75C0.447266 33.5786 34.0264 0 75.4473 0C116.868 0 150.447 33.5786 150.447 75ZM66.8086 75.3125C66.6348 74.8767 66.5977 74.3979 66.7041 73.9407L70.5225 57.4917C71.0352 55.283 74.0996 55.0754 74.9053 57.1951L82.5029 77.1794L94.8076 46.5525C95.29 45.4065 95.667 44.7429 95.9395 44.562C96.2402 44.3508 97.0098 44.2454 98.2461 44.2454H108.877C110.175 44.2454 110.989 44.3962 111.32 44.6978C111.451 44.8052 111.573 44.9927 111.686 45.2603C111.857 45.6694 112.007 46.2661 112.135 47.0503L120.549 102.65C120.611 103.068 120.657 103.411 120.688 103.679C120.701 103.803 120.712 103.911 120.719 104.003C120.727 104.097 120.73 104.174 120.73 104.233C120.73 104.897 120.504 105.364 120.052 105.636C119.629 105.877 118.83 105.997 117.654 105.997H107.837C106.511 105.997 105.681 105.862 105.349 105.59C105.183 105.439 105.035 105.16 104.907 104.753C104.779 104.345 104.67 103.81 104.579 103.147L100.418 70.4392L86.4385 103.736C85.9561 104.852 85.5635 105.515 85.2627 105.726C85.165 105.791 85.0059 105.844 84.7842 105.885C84.4834 105.942 84.0674 105.977 83.5361 105.99C83.3691 105.995 83.1904 105.997 83 105.997H81.5977C80.3613 105.997 79.5918 105.907 79.291 105.726C78.9893 105.515 78.6123 104.836 78.1592 103.69L66.8086 75.3125ZM55.4385 42.2603C55.584 41.6152 56.1572 41.1572 56.8184 41.1572H67.042C67.9492 41.1572 68.6221 41.9993 68.4219 42.8845L54.3926 104.91C54.2471 105.555 53.6738 106.013 53.0127 106.013H42.7891C41.8809 106.013 41.208 105.171 41.4082 104.285L55.4385 42.2603ZM39.0605 41.1572C38.3994 41.1572 37.8262 41.6152 37.6807 42.2603L23.6504 104.285C23.4502 105.171 24.123 106.013 25.0312 106.013H35.2549C35.916 106.013 36.4893 105.555 36.6348 104.91L50.6641 42.8845C50.8652 41.9993 50.1914 41.1572 49.2842 41.1572H39.0605Z" fill="white"/>
</svg>
