<svg width="317" height="96" viewBox="0 0 317 96" fill="none" xmlns="http://www.w3.org/2000/svg">
<path d="M139.881 7.73535C139.881 12.0075 136.418 15.4707 132.146 15.4707C127.874 15.4707 124.411 12.0075 124.411 7.73535C124.411 3.46323 127.874 0 132.146 0C136.418 0 139.881 3.46323 139.881 7.73535Z" fill="white"/>
<path d="M0.205078 1.40655V67.9055H11.8864V1.40655H0.205078Z" fill="white"/>
<path fill-rule="evenodd" clip-rule="evenodd" d="M16.4467 44.3589C16.4467 31.1784 26.811 19.663 41.788 19.663C57.3659 19.663 67.0446 31.7737 67.0446 44.3271C67.0446 59.2555 55.3644 69.2029 41.9044 69.2029C27.7218 69.2029 16.4467 59.0691 16.4467 44.3589ZM55.2575 44.4012C55.2575 37.0328 49.4883 30.9317 41.6504 30.9317C34.2246 30.9317 28.3185 36.8565 28.3185 44.4223C28.3185 51.3247 33.5497 57.913 41.862 57.913C48.8968 57.913 55.2575 52.2138 55.2575 44.4012Z" fill="white"/>
<path fill-rule="evenodd" clip-rule="evenodd" d="M96.3941 19.663C81.4171 19.663 71.0528 31.1784 71.0528 44.3589C71.0528 59.0691 82.328 69.2029 96.5105 69.2029C109.971 69.2029 121.651 59.2555 121.651 44.3271C121.651 35.5361 117.844 31.6355 117.844 31.6355L121.081 30.5252V21.0447H104.491C104.491 21.0447 100.894 19.663 96.3941 19.663ZM96.2566 30.9317C104.094 30.9317 109.864 37.0328 109.864 44.4012C109.864 52.2138 103.503 57.913 96.4682 57.913C88.1558 57.913 82.9246 51.3247 82.9246 44.4223C82.9246 36.8565 88.8307 30.9317 96.2566 30.9317Z" fill="white"/>
<path d="M96.3856 84.7101C103.42 84.7101 109.781 78.9686 109.781 71.156H121.568C121.568 86.0844 109.888 96 96.428 96C82.2454 96 70.9703 85.8662 70.9703 71.156H82.8209C82.8209 78.0584 88.0733 84.7101 96.3856 84.7101Z" fill="white"/>
<path d="M126.33 67.9055V21.0447H138.011V67.9055H126.33Z" fill="white"/>
<path d="M149.354 31.541V67.9055H161.035V31.541H167.468V21.0447H161.035V6.6547H149.354V21.0447H143.09V31.541H149.354Z" fill="white"/>
<path fill-rule="evenodd" clip-rule="evenodd" d="M168.981 44.7821C168.981 31.1527 178.682 19.6312 193.73 19.6312C210.299 19.6312 217.728 33.1007 217.728 45.9354V49.152H181.329C183.046 55.4513 187.967 58.8865 194.122 58.8865C201.505 58.8865 207.401 52.5273 207.401 52.5273L215.21 60.3466C215.21 60.3466 208.208 69.2346 193.974 69.2346C178.715 69.2346 168.981 58.8666 168.981 44.7821ZM205.475 39.6715C204.244 32.7947 198.741 29.9159 193.36 29.9159C186.21 29.9159 181.981 34.8376 181.012 39.6715H205.475Z" fill="white"/>
<path d="M246.946 69.2406C231.856 69.2406 221.573 57.7472 221.573 44.1957C221.573 30.2104 233.194 19.6224 246.898 19.6224C260.145 19.6224 266.926 28.9742 266.926 28.9742L258.777 37.0861C258.777 37.0861 254.057 30.9872 246.842 30.9872C238.846 30.9872 233.379 37.1041 233.379 44.375C233.379 52.0523 239.195 57.9425 246.752 57.9425C254.083 57.9425 258.766 51.8535 258.766 51.8535L266.996 59.961C266.996 59.961 260.281 69.2406 246.946 69.2406Z" fill="white"/>
<path d="M271.246 1.23725V67.9394H282.927V42.7145C282.927 34.5497 288.374 31.0558 294.514 31.0558C299.902 31.0558 304.766 34.2971 304.766 42.1099V67.9394H316.448V40.3443C316.448 28.7151 309.361 19.6224 297.13 19.6224C287.4 19.6224 282.927 25.7439 282.927 25.7439V1.23725H271.246Z" fill="white"/>
</svg>
